<svg width="12" height="13" viewBox="0 0 12 13" fill="none" xmlns="http://www.w3.org/2000/svg">
<g clip-path="url(#clip0_1_192)">
<mask id="mask0_1_192" style="mask-type:luminance" maskUnits="userSpaceOnUse" x="0" y="1" width="12" height="11">
<path d="M11.8 1H0.800003V12H11.8V1Z" fill="white"/>
</mask>
<g mask="url(#mask0_1_192)">
<path d="M11.2495 1.09515L9.05616 3.28847L9.96253 4.19483C10.0886 4.32093 10.0886 4.52536 9.96253 4.65146C9.83645 4.77753 9.632 4.77756 9.5059 4.65146L8.59952 3.74507L7.67849 4.6661L8.58486 5.57246C8.71095 5.69856 8.71095 5.90299 8.58486 6.02908C8.45878 6.15516 8.25433 6.15518 8.12823 6.02908L7.22185 5.1227L6.30082 6.04372L7.20719 6.95008C7.33329 7.07618 7.33329 7.28061 7.20719 7.40671C7.08111 7.53279 6.87666 7.53281 6.75056 7.40671L5.84418 6.50033L4.92316 7.42135L5.82952 8.32771C5.95562 8.45381 5.95562 8.65824 5.82952 8.78434C5.70344 8.91041 5.49899 8.91043 5.37289 8.78434L4.46651 7.87795L3.54549 8.79897L4.45185 9.70534C4.57795 9.83143 4.57795 10.0359 4.45185 10.162C4.32577 10.288 4.12132 10.2881 3.99522 10.162L3.08884 9.25558L0.895605 11.449C0.692789 11.6518 0.836668 12.0002 1.12391 12.0002H11.4778C11.6561 12.0002 11.8007 11.8557 11.8007 11.6774V1.32347C11.8007 1.03664 11.4526 0.892051 11.2495 1.09515ZM9.7127 9.58936C9.7127 9.76768 9.56813 9.91224 9.38981 9.91224H6.46231C6.17563 9.91224 6.03076 9.56428 6.23401 9.36103L9.16151 6.43353C9.36435 6.23069 9.7127 6.37461 9.7127 6.66185V9.58936Z" fill="#CACACA"/>
</g>
</g>
<defs>
<clipPath id="clip0_1_192">
<rect width="11" height="12" fill="white" transform="translate(0.800003 0.5)"/>
</clipPath>
</defs>
</svg>
