<svg width="12" height="13" viewBox="0 0 12 13" fill="none" xmlns="http://www.w3.org/2000/svg">
<mask id="mask0_1_203" style="mask-type:luminance" maskUnits="userSpaceOnUse" x="0" y="1" width="12" height="11">
<path d="M11.48 1H0.479996V12H11.48V1Z" fill="white"/>
</mask>
<g mask="url(#mask0_1_203)">
<path d="M9.93819 1H2.02205C1.8898 1 1.78247 1.10733 1.78247 1.23958V11.7604C1.78247 11.8927 1.8898 12 2.02205 12H4.34296C4.47521 12 4.58254 11.8927 4.58254 11.7604V9.8541H7.37758V11.7604C7.37758 11.8927 7.48491 12 7.61716 12H9.93807C10.0703 12 10.1776 11.8927 10.1776 11.7604V1.23958C10.1778 1.10721 10.0703 1 9.93819 1ZM4.4328 8.0672C4.4328 8.16651 4.35242 8.24689 4.25312 8.24689H3.18496C3.08565 8.24689 3.00528 8.16651 3.00528 8.0672V6.99904C3.00528 6.89974 3.08565 6.81936 3.18496 6.81936H4.25312C4.35242 6.81936 4.4328 6.89974 4.4328 6.99904V8.0672ZM4.4328 5.80618C4.4328 5.90549 4.35242 5.98587 4.25312 5.98587H3.18496C3.08565 5.98587 3.00528 5.90549 3.00528 5.80618V4.73802C3.00528 4.63872 3.08565 4.55834 3.18496 4.55834H4.25312C4.35242 4.55834 4.4328 4.63872 4.4328 4.73802V5.80618ZM4.4328 3.54516C4.4328 3.64447 4.35242 3.72484 4.25312 3.72484H3.18496C3.08565 3.72484 3.00528 3.64447 3.00528 3.54516V2.477C3.00528 2.3777 3.08565 2.29732 3.18496 2.29732H4.25312C4.35242 2.29732 4.4328 2.3777 4.4328 2.477V3.54516ZM6.69382 8.0672C6.69382 8.16651 6.61344 8.24689 6.51414 8.24689H5.44598C5.34667 8.24689 5.2663 8.16651 5.2663 8.0672V6.99904C5.2663 6.89974 5.34667 6.81936 5.44598 6.81936H6.51414C6.61344 6.81936 6.69382 6.89974 6.69382 6.99904V8.0672ZM6.69382 5.80618C6.69382 5.90549 6.61344 5.98587 6.51414 5.98587H5.44598C5.34667 5.98587 5.2663 5.90549 5.2663 5.80618V4.73802C5.2663 4.63872 5.34667 4.55834 5.44598 4.55834H6.51414C6.61344 4.55834 6.69382 4.63872 6.69382 4.73802V5.80618ZM6.69382 3.54516C6.69382 3.64447 6.61344 3.72484 6.51414 3.72484H5.44598C5.34667 3.72484 5.2663 3.64447 5.2663 3.54516V2.477C5.2663 2.3777 5.34667 2.29732 5.44598 2.29732H6.51414C6.61344 2.29732 6.69382 2.3777 6.69382 2.477V3.54516ZM8.95484 8.0672C8.95484 8.16651 8.87447 8.24689 8.77516 8.24689H7.707C7.60769 8.24689 7.52732 8.16651 7.52732 8.0672V6.99904C7.52732 6.89974 7.60769 6.81936 7.707 6.81936H8.77516C8.87447 6.81936 8.95484 6.89974 8.95484 6.99904V8.0672ZM8.95484 5.80618C8.95484 5.90549 8.87447 5.98587 8.77516 5.98587H7.707C7.60769 5.98587 7.52732 5.90549 7.52732 5.80618V4.73802C7.52732 4.63872 7.60769 4.55834 7.707 4.55834H8.77516C8.87447 4.55834 8.95484 4.63872 8.95484 4.73802V5.80618ZM8.95484 3.54516C8.95484 3.64447 8.87447 3.72484 8.77516 3.72484H7.707C7.60769 3.72484 7.52732 3.64447 7.52732 3.54516V2.477C7.52732 2.3777 7.60769 2.29732 7.707 2.29732H8.77516C8.87447 2.29732 8.95484 2.3777 8.95484 2.477V3.54516Z" fill="#CACACA"/>
</g>
</svg>
